<?xml version="1.0" encoding="UTF-8"?>
<svg xmlns="http://www.w3.org/2000/svg" xmlns:xlink="http://www.w3.org/1999/xlink" width="140pt" height="23pt" viewBox="0 0 140 23" version="1.1">
<g id="surface1">
<path style=" stroke:none;fill-rule:evenodd;fill:rgb(100%,100%,100%);fill-opacity:1;" d="M 134.628906 2.84375 L 134.628906 22.164062 L 131.878906 22.164062 L 131.878906 2.84375 L 126.992188 2.84375 L 126.992188 0.699219 L 139.515625 0.699219 L 139.515625 2.84375 Z M 124.046875 14.207031 C 123.578125 14.800781 122.953125 15.25 122.242188 15.496094 C 121.519531 15.75 120.660156 15.878906 119.660156 15.878906 C 119.195312 15.878906 118.664062 15.847656 118.074219 15.785156 C 117.582031 15.742188 117.09375 15.667969 116.605469 15.574219 L 116.605469 22.164062 L 113.859375 22.164062 L 113.859375 1.003906 C 114.632812 0.78125 115.410156 0.621094 116.195312 0.53125 C 117.042969 0.433594 117.894531 0.390625 118.746094 0.390625 C 119.96875 0.390625 121.003906 0.519531 121.859375 0.777344 C 122.714844 1.03125 123.410156 1.457031 123.9375 2.046875 C 124.46875 2.640625 124.855469 3.429688 125.097656 4.410156 C 125.34375 5.390625 125.464844 6.605469 125.464844 8.058594 C 125.464844 9.550781 125.347656 10.796875 125.113281 11.800781 C 124.878906 12.800781 124.523438 13.605469 124.046875 14.207031 Z M 122.488281 5.300781 C 122.335938 4.5625 122.09375 3.980469 121.769531 3.550781 C 121.457031 3.132812 121.027344 2.816406 120.53125 2.644531 C 120.035156 2.472656 119.4375 2.386719 118.746094 2.386719 L 116.605469 2.386719 L 116.605469 13.730469 L 118.746094 13.730469 C 119.4375 13.730469 120.035156 13.644531 120.53125 13.472656 C 121.027344 13.300781 121.457031 12.988281 121.769531 12.566406 C 122.09375 12.136719 122.335938 11.554688 122.488281 10.820312 C 122.640625 10.082031 122.714844 9.164062 122.714844 8.058594 C 122.714844 6.953125 122.640625 6.035156 122.488281 5.300781 Z M 106.984375 16.644531 L 100.875 16.644531 L 99.5 22.164062 L 96.753906 22.164062 L 101.945312 0.699219 L 105.917969 0.699219 L 111.109375 22.164062 L 108.359375 22.164062 Z M 103.992188 3.765625 L 103.871094 3.765625 L 101.335938 14.5 L 106.527344 14.5 Z M 90.796875 6.21875 L 90.644531 6.21875 L 86.214844 19.40625 L 83.464844 19.40625 L 79.039062 6.21875 L 78.886719 6.21875 L 77.96875 22.164062 L 75.21875 22.164062 L 76.441406 0.699219 L 79.800781 0.699219 L 84.78125 15.417969 L 84.902344 15.417969 L 89.882812 0.699219 L 93.242188 0.699219 L 94.464844 22.164062 L 91.714844 22.164062 Z M 70.269531 20.171875 C 69.699219 21.011719 69.011719 21.601562 68.210938 21.949219 C 67.40625 22.296875 66.484375 22.472656 65.445312 22.472656 C 64.40625 22.472656 63.484375 22.296875 62.679688 21.949219 C 61.875 21.601562 61.1875 21.011719 60.617188 20.171875 C 60.046875 19.335938 59.613281 18.203125 59.320312 16.785156 C 59.023438 15.363281 58.878906 13.578125 58.878906 11.433594 C 58.878906 9.285156 59.023438 7.5 59.320312 6.082031 C 59.613281 4.660156 60.046875 3.53125 60.617188 2.691406 C 61.1875 1.855469 61.875 1.261719 62.679688 0.914062 C 63.484375 0.566406 64.40625 0.390625 65.445312 0.390625 C 66.484375 0.390625 67.40625 0.566406 68.210938 0.914062 C 69.011719 1.261719 69.699219 1.855469 70.269531 2.691406 C 70.839844 3.53125 71.273438 4.660156 71.570312 6.082031 C 71.863281 7.5 72.011719 9.285156 72.011719 11.433594 C 72.011719 13.578125 71.863281 15.363281 71.570312 16.785156 C 71.273438 18.203125 70.839844 19.335938 70.269531 20.171875 Z M 68.941406 6.894531 C 68.730469 5.707031 68.449219 4.765625 68.101562 4.074219 C 67.753906 3.378906 67.347656 2.898438 66.878906 2.632812 C 66.445312 2.375 65.949219 2.238281 65.445312 2.230469 C 64.957031 2.230469 64.476562 2.363281 64.007812 2.632812 C 63.539062 2.898438 63.132812 3.378906 62.789062 4.074219 C 62.441406 4.765625 62.160156 5.707031 61.949219 6.894531 C 61.734375 8.078125 61.625 9.59375 61.625 11.433594 C 61.625 13.273438 61.734375 14.785156 61.949219 15.972656 C 62.160156 17.15625 62.441406 18.097656 62.789062 18.792969 C 63.132812 19.488281 63.539062 19.96875 64.007812 20.234375 C 64.476562 20.5 64.957031 20.632812 65.445312 20.632812 C 65.949219 20.628906 66.445312 20.488281 66.878906 20.234375 C 67.347656 19.96875 67.753906 19.488281 68.101562 18.792969 C 68.449219 18.097656 68.730469 17.15625 68.941406 15.972656 C 69.15625 14.785156 69.261719 13.273438 69.261719 11.433594 C 69.261719 9.59375 69.15625 8.078125 68.941406 6.894531 Z M 52.464844 12.351562 L 46.046875 12.351562 L 46.046875 22.164062 L 43.300781 22.164062 L 43.300781 0.699219 L 46.046875 0.699219 L 46.046875 10.207031 L 52.464844 10.207031 L 52.464844 0.699219 L 55.210938 0.699219 L 55.210938 22.164062 L 52.464844 22.164062 Z M 37.953125 22.164062 L 34.136719 12.964844 L 30.316406 22.164062 L 27.570312 22.164062 L 32.148438 11.125 L 28.027344 0.699219 L 30.777344 0.699219 L 34.136719 9.285156 L 37.496094 0.699219 L 40.246094 0.699219 L 36.121094 11.125 L 40.703125 22.164062 Z M 15.503906 0.699219 L 25.886719 0.699219 L 25.886719 2.84375 L 18.253906 2.84375 L 18.253906 9.898438 L 24.972656 9.898438 L 24.972656 12.046875 L 18.253906 12.046875 L 18.253906 20.019531 L 25.886719 20.019531 L 25.886719 22.164062 L 15.503906 22.164062 Z M 8.171875 22.164062 L 5.421875 22.164062 L 5.421875 2.84375 L 0.535156 2.84375 L 0.535156 0.699219 L 13.058594 0.699219 L 13.058594 2.84375 L 8.171875 2.84375 Z M 8.171875 22.164062 "/>
</g>
</svg>
